<mxfile host="www.draw.io" modified="2019-11-28T05:41:34.548Z" agent="Mozilla/5.0 (Windows NT 10.0; Win64; x64) AppleWebKit/537.36 (KHTML, like Gecko) Chrome/78.0.3904.108 Safari/537.36" etag="iyjSdQVe4Y-dV6lR4Q_U" version="12.3.2" type="github" pages="1">
  <diagram name="Page-1" id="74e2e168-ea6b-b213-b513-2b3c1d86103e">
    <mxGraphModel dx="854" dy="436" grid="1" gridSize="10" guides="1" tooltips="1" connect="1" arrows="1" fold="1" page="1" pageScale="1" pageWidth="1100" pageHeight="850" background="#ffffff" math="0" shadow="0">
      <root>
        <mxCell id="0"/>
        <mxCell id="1" parent="0"/>
        <mxCell id="77e6c97f196da883-1" value="clue insert database flow" style="swimlane;html=1;childLayout=stackLayout;startSize=20;rounded=0;shadow=0;labelBackgroundColor=none;strokeWidth=1;fontFamily=Comic Sans MS;fontSize=8;align=center;comic=1;" parent="1" vertex="1">
          <mxGeometry x="45" y="50" width="1120" height="740" as="geometry"/>
        </mxCell>
        <mxCell id="77e6c97f196da883-2" value="start" style="swimlane;html=1;startSize=20;comic=1;fontFamily=Comic Sans MS;" parent="77e6c97f196da883-1" vertex="1">
          <mxGeometry y="20" width="160" height="720" as="geometry"/>
        </mxCell>
        <mxCell id="4Zd1P45K5OripV8Mwesh-3" value="start" style="strokeWidth=2;html=1;shape=mxgraph.flowchart.start_2;whiteSpace=wrap;fontFamily=Comic Sans MS;fillColor=#cdeb8b;strokeColor=#36393d;" vertex="1" parent="77e6c97f196da883-2">
          <mxGeometry x="56" y="70" width="48" height="48" as="geometry"/>
        </mxCell>
        <mxCell id="77e6c97f196da883-26" style="edgeStyle=orthogonalEdgeStyle;rounded=1;html=1;labelBackgroundColor=none;startArrow=none;startFill=0;startSize=5;endArrow=classicThin;endFill=1;endSize=5;jettySize=auto;orthogonalLoop=1;strokeWidth=1;fontFamily=Comic Sans MS;fontSize=8;comic=1;" parent="77e6c97f196da883-1" source="4Zd1P45K5OripV8Mwesh-3" target="77e6c97f196da883-11" edge="1">
          <mxGeometry relative="1" as="geometry">
            <mxPoint x="120" y="115" as="sourcePoint"/>
          </mxGeometry>
        </mxCell>
        <mxCell id="77e6c97f196da883-3" value="customer" style="swimlane;html=1;startSize=20;comic=1;fontFamily=Comic Sans MS;" parent="77e6c97f196da883-1" vertex="1">
          <mxGeometry x="160" y="20" width="160" height="720" as="geometry"/>
        </mxCell>
        <mxCell id="77e6c97f196da883-11" value="check customer" style="rounded=1;whiteSpace=wrap;html=1;shadow=0;labelBackgroundColor=none;strokeWidth=1;fontFamily=Comic Sans MS;fontSize=8;align=center;comic=1;" parent="77e6c97f196da883-3" vertex="1">
          <mxGeometry x="30" y="64" width="100" height="60" as="geometry"/>
        </mxCell>
        <mxCell id="4Zd1P45K5OripV8Mwesh-10" value="exist" style="rhombus;whiteSpace=wrap;html=1;rounded=0;shadow=0;labelBackgroundColor=none;strokeWidth=1;fontFamily=Comic Sans MS;fontSize=8;align=center;comic=1;" vertex="1" parent="77e6c97f196da883-3">
          <mxGeometry x="40" y="190" width="80" height="60" as="geometry"/>
        </mxCell>
        <mxCell id="77e6c97f196da883-27" style="edgeStyle=orthogonalEdgeStyle;rounded=1;html=1;labelBackgroundColor=none;startArrow=none;startFill=0;startSize=5;endArrow=classicThin;endFill=1;endSize=5;jettySize=auto;orthogonalLoop=1;strokeWidth=1;fontFamily=Comic Sans MS;fontSize=8;comic=1;entryX=0.5;entryY=0;entryDx=0;entryDy=0;" parent="77e6c97f196da883-3" source="77e6c97f196da883-11" target="4Zd1P45K5OripV8Mwesh-10" edge="1">
          <mxGeometry relative="1" as="geometry">
            <Array as="points">
              <mxPoint x="80" y="160"/>
              <mxPoint x="80" y="160"/>
            </Array>
            <mxPoint x="-90" y="155" as="targetPoint"/>
          </mxGeometry>
        </mxCell>
        <mxCell id="77e6c97f196da883-4" value="clue" style="swimlane;html=1;startSize=20;comic=1;fontFamily=Comic Sans MS;" parent="77e6c97f196da883-1" vertex="1">
          <mxGeometry x="320" y="20" width="160" height="720" as="geometry"/>
        </mxCell>
        <mxCell id="4Zd1P45K5OripV8Mwesh-16" value="" style="edgeStyle=orthogonalEdgeStyle;rounded=0;comic=1;orthogonalLoop=1;jettySize=auto;html=1;fontFamily=Comic Sans MS;" edge="1" parent="77e6c97f196da883-4" source="4Zd1P45K5OripV8Mwesh-12" target="4Zd1P45K5OripV8Mwesh-14">
          <mxGeometry relative="1" as="geometry"/>
        </mxCell>
        <mxCell id="4Zd1P45K5OripV8Mwesh-12" value="check clue" style="rounded=1;whiteSpace=wrap;html=1;shadow=0;labelBackgroundColor=none;strokeWidth=1;fontFamily=Comic Sans MS;fontSize=8;align=center;comic=1;" vertex="1" parent="77e6c97f196da883-4">
          <mxGeometry x="30" y="190" width="100" height="60" as="geometry"/>
        </mxCell>
        <mxCell id="4Zd1P45K5OripV8Mwesh-14" value="exist" style="rhombus;whiteSpace=wrap;html=1;rounded=0;shadow=0;labelBackgroundColor=none;strokeWidth=1;fontFamily=Comic Sans MS;fontSize=8;align=center;comic=1;" vertex="1" parent="77e6c97f196da883-4">
          <mxGeometry x="40" y="290" width="80" height="60" as="geometry"/>
        </mxCell>
        <mxCell id="4Zd1P45K5OripV8Mwesh-17" value="add clue" style="rounded=1;whiteSpace=wrap;html=1;shadow=0;labelBackgroundColor=none;strokeWidth=1;fontFamily=Comic Sans MS;fontSize=8;align=center;comic=1;" vertex="1" parent="77e6c97f196da883-4">
          <mxGeometry x="30" y="650" width="100" height="60" as="geometry"/>
        </mxCell>
        <mxCell id="4Zd1P45K5OripV8Mwesh-38" style="edgeStyle=orthogonalEdgeStyle;rounded=0;comic=1;orthogonalLoop=1;jettySize=auto;html=1;entryX=0.5;entryY=0;entryDx=0;entryDy=0;fontFamily=Comic Sans MS;" edge="1" parent="77e6c97f196da883-4" source="4Zd1P45K5OripV8Mwesh-14" target="4Zd1P45K5OripV8Mwesh-17">
          <mxGeometry relative="1" as="geometry">
            <Array as="points"/>
          </mxGeometry>
        </mxCell>
        <mxCell id="4Zd1P45K5OripV8Mwesh-39" value="no" style="text;html=1;align=center;verticalAlign=middle;resizable=0;points=[];;labelBackgroundColor=#ffffff;fontFamily=Comic Sans MS;" vertex="1" connectable="0" parent="4Zd1P45K5OripV8Mwesh-38">
          <mxGeometry x="-0.5429" y="2" relative="1" as="geometry">
            <mxPoint as="offset"/>
          </mxGeometry>
        </mxCell>
        <mxCell id="77e6c97f196da883-6" value="deal rule" style="swimlane;html=1;startSize=20;comic=1;fontFamily=Comic Sans MS;" parent="77e6c97f196da883-1" vertex="1">
          <mxGeometry x="480" y="20" width="160" height="720" as="geometry"/>
        </mxCell>
        <mxCell id="4Zd1P45K5OripV8Mwesh-36" value="" style="edgeStyle=orthogonalEdgeStyle;rounded=0;comic=1;orthogonalLoop=1;jettySize=auto;html=1;fontFamily=Comic Sans MS;" edge="1" parent="77e6c97f196da883-6" source="4Zd1P45K5OripV8Mwesh-33" target="4Zd1P45K5OripV8Mwesh-35">
          <mxGeometry relative="1" as="geometry"/>
        </mxCell>
        <mxCell id="4Zd1P45K5OripV8Mwesh-33" value="check rule" style="rounded=1;whiteSpace=wrap;html=1;shadow=0;labelBackgroundColor=none;strokeWidth=1;fontFamily=Comic Sans MS;fontSize=8;align=center;comic=1;" vertex="1" parent="77e6c97f196da883-6">
          <mxGeometry x="30" y="290" width="100" height="60" as="geometry"/>
        </mxCell>
        <mxCell id="4Zd1P45K5OripV8Mwesh-35" value="exist" style="rhombus;whiteSpace=wrap;html=1;rounded=0;shadow=0;labelBackgroundColor=none;strokeWidth=1;fontFamily=Comic Sans MS;fontSize=8;align=center;comic=1;" vertex="1" parent="77e6c97f196da883-6">
          <mxGeometry x="40" y="390" width="80" height="60" as="geometry"/>
        </mxCell>
        <mxCell id="4Zd1P45K5OripV8Mwesh-13" value="yes" style="edgeStyle=orthogonalEdgeStyle;rounded=0;comic=1;orthogonalLoop=1;jettySize=auto;html=1;fontFamily=Comic Sans MS;" edge="1" parent="77e6c97f196da883-1" source="4Zd1P45K5OripV8Mwesh-10" target="4Zd1P45K5OripV8Mwesh-12">
          <mxGeometry relative="1" as="geometry"/>
        </mxCell>
        <mxCell id="4Zd1P45K5OripV8Mwesh-18" style="edgeStyle=orthogonalEdgeStyle;rounded=0;comic=1;orthogonalLoop=1;jettySize=auto;html=1;entryX=0;entryY=0.5;entryDx=0;entryDy=0;fontFamily=Comic Sans MS;" edge="1" parent="77e6c97f196da883-1" source="4Zd1P45K5OripV8Mwesh-10" target="4Zd1P45K5OripV8Mwesh-17">
          <mxGeometry relative="1" as="geometry">
            <Array as="points">
              <mxPoint x="240" y="700"/>
            </Array>
          </mxGeometry>
        </mxCell>
        <mxCell id="4Zd1P45K5OripV8Mwesh-19" value="no" style="text;html=1;align=center;verticalAlign=middle;resizable=0;points=[];;labelBackgroundColor=#ffffff;fontFamily=Comic Sans MS;" vertex="1" connectable="0" parent="4Zd1P45K5OripV8Mwesh-18">
          <mxGeometry x="-0.2667" y="2" relative="1" as="geometry">
            <mxPoint as="offset"/>
          </mxGeometry>
        </mxCell>
        <mxCell id="4Zd1P45K5OripV8Mwesh-23" value="" style="edgeStyle=orthogonalEdgeStyle;rounded=0;comic=1;orthogonalLoop=1;jettySize=auto;html=1;fontFamily=Comic Sans MS;entryX=0;entryY=0.5;entryDx=0;entryDy=0;entryPerimeter=0;" edge="1" parent="77e6c97f196da883-1" source="4Zd1P45K5OripV8Mwesh-17" target="4Zd1P45K5OripV8Mwesh-46">
          <mxGeometry relative="1" as="geometry">
            <mxPoint x="860" y="700" as="targetPoint"/>
          </mxGeometry>
        </mxCell>
        <mxCell id="4Zd1P45K5OripV8Mwesh-26" value="conflict rule" style="swimlane;html=1;startSize=20;comic=1;fontFamily=Comic Sans MS;" vertex="1" parent="77e6c97f196da883-1">
          <mxGeometry x="640" y="20" width="160" height="720" as="geometry">
            <mxRectangle x="640" y="20" width="30" height="730" as="alternateBounds"/>
          </mxGeometry>
        </mxCell>
        <mxCell id="4Zd1P45K5OripV8Mwesh-37" value="check rule" style="rounded=1;whiteSpace=wrap;html=1;shadow=0;labelBackgroundColor=none;strokeWidth=1;fontFamily=Comic Sans MS;fontSize=8;align=center;comic=1;" vertex="1" parent="4Zd1P45K5OripV8Mwesh-26">
          <mxGeometry x="30" y="470" width="100" height="60" as="geometry"/>
        </mxCell>
        <mxCell id="4Zd1P45K5OripV8Mwesh-29" value="clue behavior" style="swimlane;html=1;startSize=20;comic=1;fontFamily=Comic Sans MS;" vertex="1" parent="77e6c97f196da883-1">
          <mxGeometry x="800" y="20" width="160" height="720" as="geometry">
            <mxRectangle x="640" y="20" width="30" height="730" as="alternateBounds"/>
          </mxGeometry>
        </mxCell>
        <mxCell id="4Zd1P45K5OripV8Mwesh-42" value="add behavior" style="rounded=1;whiteSpace=wrap;html=1;shadow=0;labelBackgroundColor=none;strokeWidth=1;fontFamily=Comic Sans MS;fontSize=8;align=center;comic=1;" vertex="1" parent="4Zd1P45K5OripV8Mwesh-29">
          <mxGeometry x="45" y="390" width="100" height="60" as="geometry"/>
        </mxCell>
        <mxCell id="4Zd1P45K5OripV8Mwesh-34" value="yes" style="edgeStyle=orthogonalEdgeStyle;rounded=0;comic=1;orthogonalLoop=1;jettySize=auto;html=1;fontFamily=Comic Sans MS;" edge="1" parent="77e6c97f196da883-1" source="4Zd1P45K5OripV8Mwesh-14" target="4Zd1P45K5OripV8Mwesh-33">
          <mxGeometry relative="1" as="geometry"/>
        </mxCell>
        <mxCell id="4Zd1P45K5OripV8Mwesh-40" style="edgeStyle=orthogonalEdgeStyle;rounded=0;comic=1;orthogonalLoop=1;jettySize=auto;html=1;entryX=0.5;entryY=0;entryDx=0;entryDy=0;fontFamily=Comic Sans MS;" edge="1" parent="77e6c97f196da883-1" source="4Zd1P45K5OripV8Mwesh-37" target="4Zd1P45K5OripV8Mwesh-17">
          <mxGeometry relative="1" as="geometry">
            <Array as="points">
              <mxPoint x="720" y="570"/>
              <mxPoint x="400" y="570"/>
            </Array>
          </mxGeometry>
        </mxCell>
        <mxCell id="4Zd1P45K5OripV8Mwesh-41" value="coursetype" style="text;html=1;align=center;verticalAlign=middle;resizable=0;points=[];;labelBackgroundColor=#ffffff;fontFamily=Comic Sans MS;" vertex="1" connectable="0" parent="4Zd1P45K5OripV8Mwesh-40">
          <mxGeometry x="-0.0864" y="4" relative="1" as="geometry">
            <mxPoint as="offset"/>
          </mxGeometry>
        </mxCell>
        <mxCell id="4Zd1P45K5OripV8Mwesh-43" style="edgeStyle=orthogonalEdgeStyle;rounded=0;comic=1;orthogonalLoop=1;jettySize=auto;html=1;entryX=0;entryY=0.5;entryDx=0;entryDy=0;fontFamily=Comic Sans MS;" edge="1" parent="77e6c97f196da883-1" source="4Zd1P45K5OripV8Mwesh-35" target="4Zd1P45K5OripV8Mwesh-37">
          <mxGeometry relative="1" as="geometry">
            <Array as="points">
              <mxPoint x="560" y="520"/>
            </Array>
          </mxGeometry>
        </mxCell>
        <mxCell id="4Zd1P45K5OripV8Mwesh-44" value="no" style="text;html=1;align=center;verticalAlign=middle;resizable=0;points=[];;labelBackgroundColor=#ffffff;fontFamily=Comic Sans MS;" vertex="1" connectable="0" parent="4Zd1P45K5OripV8Mwesh-43">
          <mxGeometry x="-0.3875" y="29" relative="1" as="geometry">
            <mxPoint as="offset"/>
          </mxGeometry>
        </mxCell>
        <mxCell id="4Zd1P45K5OripV8Mwesh-45" value="end" style="swimlane;html=1;startSize=20;comic=1;fontFamily=Comic Sans MS;" vertex="1" parent="77e6c97f196da883-1">
          <mxGeometry x="960" y="20" width="160" height="720" as="geometry">
            <mxRectangle x="640" y="20" width="30" height="730" as="alternateBounds"/>
          </mxGeometry>
        </mxCell>
        <mxCell id="4Zd1P45K5OripV8Mwesh-46" value="end" style="strokeWidth=2;html=1;shape=mxgraph.flowchart.start_2;whiteSpace=wrap;fontFamily=Comic Sans MS;fillColor=#ffcccc;strokeColor=#36393d;" vertex="1" parent="4Zd1P45K5OripV8Mwesh-45">
          <mxGeometry x="60" y="656" width="48" height="48" as="geometry"/>
        </mxCell>
        <mxCell id="4Zd1P45K5OripV8Mwesh-47" value="yes" style="edgeStyle=orthogonalEdgeStyle;rounded=0;comic=1;orthogonalLoop=1;jettySize=auto;html=1;fontFamily=Comic Sans MS;" edge="1" parent="77e6c97f196da883-1" source="4Zd1P45K5OripV8Mwesh-35" target="4Zd1P45K5OripV8Mwesh-42">
          <mxGeometry relative="1" as="geometry"/>
        </mxCell>
        <mxCell id="4Zd1P45K5OripV8Mwesh-48" style="edgeStyle=orthogonalEdgeStyle;rounded=0;comic=1;orthogonalLoop=1;jettySize=auto;html=1;entryX=0.5;entryY=0;entryDx=0;entryDy=0;entryPerimeter=0;fontFamily=Comic Sans MS;" edge="1" parent="77e6c97f196da883-1" source="4Zd1P45K5OripV8Mwesh-42" target="4Zd1P45K5OripV8Mwesh-46">
          <mxGeometry relative="1" as="geometry"/>
        </mxCell>
        <mxCell id="4Zd1P45K5OripV8Mwesh-49" value="&lt;h1&gt;&lt;span style=&quot;font-weight: normal&quot;&gt;&lt;font style=&quot;font-size: 12px&quot;&gt;design by risfeng&lt;/font&gt;&lt;/span&gt;&lt;/h1&gt;" style="text;html=1;strokeColor=none;fillColor=none;spacing=5;spacingTop=-20;whiteSpace=wrap;overflow=hidden;rounded=0;comic=1;fontFamily=Comic Sans MS;align=center;" vertex="1" parent="1">
          <mxGeometry x="512.5" y="800" width="190" height="40" as="geometry"/>
        </mxCell>
      </root>
    </mxGraphModel>
  </diagram>
</mxfile>
